<?xml version="1.0" encoding="UTF-8" standalone="no"?>
<!-- Created with Inkscape (http://www.inkscape.org/) -->

<svg
   version="1.1"
   id="svg1"
   width="260"
   height="96"
   viewBox="278 480 260 96"
   sodipodi:docname="bafta.pdf"
   xmlns:inkscape="http://www.inkscape.org/namespaces/inkscape"
   xmlns:sodipodi="http://sodipodi.sourceforge.net/DTD/sodipodi-0.dtd"
   xmlns="http://www.w3.org/2000/svg"
   xmlns:svg="http://www.w3.org/2000/svg">
  <defs
     id="defs1" />
  <sodipodi:namedview
     id="namedview1"
     pagecolor="#ffffff"
     bordercolor="#000000"
     borderopacity="0.25"
     inkscape:showpageshadow="2"
     inkscape:pageopacity="0.0"
     inkscape:pagecheckerboard="0"
     inkscape:deskcolor="#d1d1d1">
    <inkscape:page
       x="0"
       y="0"
       inkscape:label="1"
       id="page1"
       width="816"
       height="1056"
       margin="0"
       bleed="0" />
  </sodipodi:namedview>
  <g
     id="g1"
     inkscape:groupmode="layer"
     inkscape:label="1">
    <path
       id="path1"
       d="m 2370.97,4242.65 c 11.21,1.45 22.54,3.58 33.83,2 -7.56,-2.12 -15.7,-1.56 -23.06,-4.58 -9.93,-3.45 -16.84,-12.93 -27.47,-14.67 -8.1,-1.72 -16.35,0 -24.23,1.96 -13.04,3.14 -27.59,2.06 -39.25,-4.91 -7.78,-5.22 -13.95,-14.1 -13.63,-23.77 0.13,-4.28 2.59,-7.94 4.45,-11.63 -1.89,-8.89 -0.57,-17.99 2.82,-26.35 2.07,10.29 5.94,20.93 14.57,27.51 7.31,5.77 16.69,8.86 26,8.46 10.02,0.34 19.11,-5.66 29.22,-4.56 11.23,-0.18 21.79,6.51 26.84,16.46 -7.27,-5.34 -16.36,-8.74 -25.46,-6.91 -16.78,3.25 -33.56,12.48 -50.98,7.75 -8.94,-2 -15.35,-9.08 -19.95,-16.59 0.34,8.66 4.51,17.55 12.6,21.44 12.16,5.72 26.34,5.12 39.21,2.46 9.91,-2.85 20.59,-4.14 30.67,-1.44 9.02,3.17 15.17,11.02 20.21,18.74 1.16,2.19 3.67,0.58 3.86,-1.34 3.51,-9.45 2.78,-19.69 1.37,-29.48 7.83,9.07 12.26,20.28 16.85,31.18 1.77,4.48 6.54,5.44 10.87,5.12 0.63,-3.9 0.92,-7.93 -0.1,-11.81 -4.68,-20.43 -17.3,-40.09 -36.84,-48.93 -10.26,-4.98 -21.83,-5.49 -33.02,-4.62 -9.39,0.72 -6.94,0.72 -10.23,0.96 11.28,-3.53 22.37,-8.5 34.43,-8.63 15.44,-1.15 30.93,5.62 40.84,17.48 12.96,15.85 18.83,36.5 19.72,56.71 17.29,-3.21 34.79,-4.87 52.15,-7.61 13.1,-1.95 26.42,-1.39 39.56,-2.96 -11.33,-3.92 -23.2,-6.66 -35.25,-6.21 -7.43,-0.3 -14.57,2.04 -21.93,2.54 -0.43,-0.46 -1.29,-1.36 -1.73,-1.83 8.54,-11.44 24.61,-15.53 38.13,-11.94 -3.03,-3.19 -5.93,-6.79 -10.1,-8.5 -7.54,-3.4 -15.66,-0.46 -23.55,-1.41 1.34,-4.35 3.47,-8.94 7.75,-10.99 8.37,-4.56 18.24,-3.8 27.44,-3.8 -5.92,-5.95 -13.09,-11.62 -21.8,-12.23 -7.29,-0.14 -14.6,1.46 -21.36,4.12 -6.54,2.56 -11.03,8.15 -16.08,12.76 0.36,-0.57 1.09,-1.69 1.45,-2.27 3.92,-10.04 9.88,-20.44 20.24,-24.87 9.92,-4.04 21.22,-1.26 30.29,3.72 5.92,2.91 11.18,7.22 17.58,9.11 4.74,1.61 9.66,1.18 14.36,-1.02 5.35,-5.55 7.5,-14.53 3.38,-21.4 -4.18,-6.45 -11.08,-10.34 -16.46,-15.67 2.18,6.88 8.53,15.98 3.7,21.23 -8.06,2.89 -14.9,-0.96 -22.74,-2.92 -13.15,-3.88 -27.16,-8.33 -40.91,-4.87 -14.17,2.89 -23.58,18.58 -39.12,16.43 -21.4,-3.68 -40.89,-14.65 -57.9,-27.82 -10,-7.71 -19.7,-17.21 -23.04,-29.84 -3.55,-13.65 -5.05,-27.83 -9.99,-41.12 -0.73,-3.16 -3.33,-6.95 -0.6,-9.8 3.63,-4.94 10.11,-1.17 14.89,-0.56 21.7,4.28 43.85,10.55 66.1,7.2 7.32,-1.58 16.28,-3.24 19.96,-10.68 4.49,-8.75 5.04,-18.88 5.45,-28.53 -3.26,5.07 -5.66,11.09 -10.8,14.63 -3.55,2.66 -8.2,-0.89 -9.13,-4.55 -2.88,-10.55 -1.71,-23.27 -10.62,-31.2 -12.6,-11.05 -21.85,-29.47 -15.08,-46.08 6.38,-12.2 12.13,-25.71 10.43,-39.82 -0.66,-8.32 -8.09,-13.86 -9.57,-21.92 -1.34,-5.37 0.24,-12.8 6.3,-14.4 7.38,-2.51 14.6,2.01 21.93,2.37 7,0.87 13.67,-1.75 20.51,-2.63 1.54,7.38 -1.11,14.68 -1.21,22.05 -2.07,22.43 1.31,44.9 0.67,67.36 0.3,11.32 -1.5,24.51 -1.1,35.83 8.36,-31.93 8.61,-67.13 13.71,-99.6 1.38,-6.55 2.22,-13.45 5.62,-19.33 4.51,-7.74 16.09,-10.38 23.29,-4.86 3.98,2.91 5.84,7.66 8.12,11.85 3.4,-4.33 4.77,-9.71 2.81,-14.92 -3.61,-8.9 -15.03,-12.41 -17.83,-21.82 -2.85,-8.49 -5.92,-18.72 -14.92,-22.52 -11.22,-3.66 -25.02,-0.27 -32.03,9.63 -4.12,5.7 -9.76,10.46 -16.57,12.6 -7.47,2.57 -15.43,0.86 -23.13,1.11 -7.32,-0.05 -14.11,6.38 -14.19,13.78 -0.26,7.98 3.58,15.6 2.34,23.62 -1.46,14.74 -12.72,26.41 -24.89,33.64 -7.05,4.39 -15.51,1.29 -23.21,2.15 -10.72,0.31 -21.14,7.32 -31.91,3.37 -8.11,-2.49 -11.6,-11.28 -12.74,-18.97 -0.94,-8.34 -0.69,-17.04 2.22,-25 7.88,-22.43 19.36,-43.7 24.08,-67.14 0.94,-13.74 0.42,-28.2 6.53,-40.94 1.68,-3.87 4.96,-6.64 7.96,-9.44 4.46,-0.4 9.93,-2.14 13.5,1.53 5.22,5.11 2.85,13.23 1.64,19.49 -2.51,9.9 -2.67,21.44 4.12,29.75 4.85,5.78 11.5,12.02 19.67,11.02 3.04,0.02 5.39,-2.15 7.89,-3.58 0.1,-2.23 0.23,-4.48 0.35,-6.72 8.83,-2.78 18.22,-0.83 26.78,1.93 11.25,3.97 23.07,7.17 35.1,6.63 8.72,-0.32 16,-7.25 24.92,-6.18 6.03,0 10.23,5.3 15.92,6.23 9.58,-0.88 16.42,-10.53 26.52,-9.17 6.02,-0.32 9.95,4.98 12.56,9.7 0.56,-0.01 1.67,-0.06 2.23,-0.07 0.99,-1.15 1.66,-1.8 2.04,-3.42 0.9,-10 1.08,-21.32 -5.79,-29.45 -1.76,-2.31 -5.32,-4.64 -7.93,-2.19 -3.79,3.81 -6.21,8.82 -10.51,12.16 -6.45,5.3 -15.27,6.86 -23.4,5.86 -10.59,-1.34 -21.32,-1.7 -31.96,-0.75 -4.63,0.16 -10.02,1.24 -13.78,-2.2 -5.92,-5.31 -9.35,-15.95 -3.15,-22.31 5.42,-4.55 13.09,-3.43 19.65,-3.26 12.19,1.27 24.47,2.29 36.73,1.48 3.14,-0.24 7.82,-1.47 7.82,-5.39 -1.35,-6.75 -7.09,-11.81 -13.4,-13.99 -14.61,-5.49 -30.54,-5.05 -45.89,-4.7 -18.45,0.76 -35.42,10.47 -53.99,9.94 -5.12,-0.4 -12.21,-4.11 -10.45,-10.27 3.32,-7.45 10.48,-13.22 11.05,-21.82 0.78,-13.66 1.85,-28.86 11.3,-39.63 8.17,-8.28 20.02,-14.14 31.89,-12.19 10.68,1.92 21.32,4.67 32.24,4.52 9.66,0.53 19.64,-1.37 29.02,1.74 10.56,3.25 19.63,10.64 25.63,19.85 8.46,12.42 12.64,27.04 17.23,41.17 6.24,20.43 11.2,41.22 15.73,62.11 5.08,22.39 15.68,42.92 23.16,64.48 9.62,30.15 14.66,62.71 7.62,93.98 -1.41,0.1 -1.87,0.88 -3.26,1.02 -2.58,-4.01 -7.48,-7.24 -11.94,-8.95 1.41,5.4 5.41,10.01 3.97,15.79 -4.82,-6.18 -9.96,-12.07 -17.91,-12.38 -10.04,-1.55 -18.6,4.71 -27.83,7.17 -3.63,0.92 -1.51,-3.63 -0.14,-4.73 5.16,-6.01 13.02,-8.4 19.67,-12.27 -4.32,-6.85 -13.41,-4.54 -19.87,-2.71 -8.74,2.3 -15.75,10.03 -25.29,9.04 -1.54,-10.23 1.22,-20.41 1.47,-30.64 0.15,-7.08 0.62,-14.27 -1,-21.23 -6.17,27.79 -10.3,56 -15.1,84.05 -2.28,12.69 -5.54,25.29 -5.93,38.24 -0.24,5.88 2,12.08 6.84,15.66 4.19,2.98 9.19,4.79 14.27,5.5 20.71,1.93 41.63,-1.39 61.18,-8.27 9.66,-2.57 20.18,-7.67 30.07,-3.21 0.74,15.26 2.21,30.57 1.05,45.85 -0.9,12.76 -5.68,25.47 -14.54,34.82 -6.55,-4.63 -12.58,-10.31 -20.28,-13.05 -6.21,-2.5 -13.03,-1.88 -19.5,-3.17 -4.22,-0.82 -7.83,-3.28 -11.62,-5.17 1.51,8.94 8.55,17.06 17.62,18.76 7.29,1.78 15.05,2.59 21.63,6.5 10.12,5.62 16.23,16.47 19.02,27.41 2.94,11.79 0.18,24.1 -4.85,34.91 9.37,-7.89 16.29,-18.85 18.85,-30.87 2.81,-12.56 1.06,-26.17 7.41,-37.83 -8.45,2.66 -11.59,11.51 -14.06,19.11 -1.84,-6.22 -2,-12.96 -0.06,-19.19 2.65,-7.38 12.2,-8.91 14.63,-16.38 1.52,-4.04 1.49,-8.43 2.21,-12.63 1.47,3.66 2.66,7.46 2.55,11.48 -0.59,14.33 1.42,28.86 -1.89,42.97 -1.18,4.34 -2.79,8.56 -4,12.87 10.16,-6.01 14.19,-18.33 13.7,-29.61 0.07,-9.41 -3.75,-18.32 -3.63,-27.73 -0.21,-18.23 0.67,-37.38 -7.07,-54.35 -1.82,-4.88 -8,-7.42 -7.82,-13.05 -0.35,-11.01 -6.69,-20.37 -9.72,-30.66 -3.09,-14.91 -2.2,-30.24 -1.78,-45.38 1.36,-22.85 2.44,-46.06 -1.95,-68.69 -5.57,-27.87 -13.42,-55.26 -22.78,-82.1 -11.27,-33.56 -17.48,-68.95 -32.85,-101.03 -8.84,-19.05 -27.39,-32.06 -47.49,-36.8 -23.91,-5.4 -48.43,-8.59 -72.98,-8.3 -19.49,0.11 -38.97,-0.3 -58.45,0.37 -14.97,1.17 -29.83,3.63 -44.61,6.27 -10.94,2.42 -22.45,4.89 -31.46,11.98 -7.34,5.25 -12.95,12.49 -17.84,19.98 -11.46,18.4 -18.95,38.87 -25.84,59.31 -9.97,30.73 -17.85,62.12 -24.34,93.76 -2.59,12.24 -3.89,24.76 -7.44,36.77 -2.65,10.15 -8.41,19.08 -11.67,29.02 -5.07,15.55 -9.34,31.72 -8.96,48.23 -0.57,19.59 4.52,39 2.6,58.62 -1.81,19.96 -4.41,39.85 -5.61,59.87 -0.25,25.31 5.1,50.98 17.67,73.12 8.24,15.33 20.16,28.36 33.39,39.49 11.39,8.8 23.87,16.74 37.95,20.33 -15.18,-9.75 -29.94,-22.62 -34.85,-40.71 -3.94,-13.13 -1.33,-27.68 5.98,-39.13 3.96,-6.06 9.7,-11.36 16.95,-12.97 -4.06,5 -8.62,9.73 -11.18,15.72 -4.31,9.67 -3.74,20.38 -1.52,30.56 1.19,-11.39 3.32,-22.72 10.14,-32.19 6.27,-9.27 16.46,-18.22 28.43,-16.69 2.82,0.54 4.77,-1.92 6.83,-3.41 6.27,-5.27 13.25,-10.32 21.42,-12 5.3,-1.26 10.6,1.45 14.38,5.01 -3.86,3.28 -8.58,5.32 -12.64,8.32 -17.39,12.37 -30.28,31.37 -34.35,52.42 -1.15,10.01 -1.95,21.41 4.51,29.91 5.98,8.04 15.46,11.82 24.14,16.09 -13.44,-1.84 -27.47,-6.6 -36.24,-17.51 -7.75,-10.09 -8.54,-23.71 -6.31,-35.81 2.52,-12.12 6.9,-24.01 14.15,-34.14 -7.86,2.5 -13.54,9.16 -17.64,16.01 -7.9,13.21 -10.26,29.91 -5.42,44.62 4.56,13.56 16.14,23.94 29.38,28.79 15.39,5.58 31.94,5.92 48.1,6.44 19.23,0.28 38.66,-2.5 57.69,1.38 z m -186.52,-78.9 c -7.75,-15.02 -11.22,-32.34 -9.98,-49.2 5.35,12.68 9.85,26.25 19.51,36.48 2.88,3.52 7.28,6.23 8.54,10.81 0.61,5.87 -0.82,11.68 -1.52,17.46 -7.75,-1.94 -12.66,-9.06 -16.55,-15.55 z m 110.63,1.74 c -3.39,-7.58 -1.55,-16.45 3.22,-22.97 1.23,7.43 0.9,15.99 6.7,21.66 6.16,7.5 16.51,8.02 25.38,9.08 -5.69,1.45 -11.18,3.99 -17.13,4.05 -7.64,0.09 -15.56,-4.4 -18.17,-11.82 z m -101.56,-35.71 c -7.65,-8.41 -10.57,-19.96 -11.48,-31.03 -1.99,-17.68 7.15,-33.95 8.89,-51.22 0.45,-9.64 -5.82,-17.71 -9.02,-26.39 -8.84,-23.54 -9.13,-51.21 2.93,-73.69 -1.09,12.18 -2.21,24.72 1.05,36.68 2.51,9.11 5.93,18.27 12.04,25.62 6.89,8.54 14.08,17.55 16.49,28.53 2.03,10.48 -0.74,21 -1.92,31.39 -1.43,8.22 -1.41,16.58 -1.23,24.87 -0.4,9.68 8.09,17.35 6.22,27.21 -3.92,-0.97 -8.14,-1.98 -10.97,-5.08 -4.46,-4.78 -6.13,-11.4 -7.43,-17.64 -3.14,-19.28 6.61,-37.88 4.56,-57.12 -1.88,-16.23 -15.18,-27.55 -20.08,-42.67 -0.64,18.95 16.55,33.85 13.67,53.12 -2.29,16.99 -9.04,33.73 -6.66,51.12 1.88,13.07 10.47,23.79 19.71,32.65 0.03,0.95 0.07,2.85 0.09,3.81 -7.34,0.57 -12.4,-5.27 -16.86,-10.16 z m 83.04,-23.08 c -6.09,-3.13 -7.93,-10.2 -11.07,-15.74 -4.56,-9.09 -14.31,-14.05 -19.04,-23.02 -3.16,-5.3 -5.57,-12.7 -1.33,-18.1 4.03,-5.16 11.19,-5.16 17.12,-4.59 13.43,1.58 26.73,4.24 39.8,7.71 4.05,8.43 4.36,17.98 3.89,27.16 -0.54,8.47 -2.25,17.5 -7.92,24.13 -5.32,6.05 -14.71,5.76 -21.45,2.45 z m 21.86,-84.99 c 6.12,0.45 11.97,2.43 17.76,4.31 13.6,4.26 28.59,7.67 42.54,3.11 8.81,-2.73 15.08,-9.72 22.04,-15.34 -2.63,7.59 -6.28,15.01 -11.88,20.86 -6.04,6.12 -15.25,7.83 -23.54,7.35 -17.19,-2.07 -33.08,-10.19 -46.92,-20.29 z m 227.65,14.71 c -0.02,-1.11 -0.03,-3.33 -0.05,-4.44 -12.39,-2.54 -22.11,-10.49 -29.48,-17.2 0.63,-0.41 0.97,-0.64 1.61,-1.05 8.96,7.95 30.58,13.22 41.85,11.3 -5,-4.27 -12.68,-3.27 -16.99,-8.61 -1.4,-5.66 4.63,-9.66 4.43,-15.25 0.6,-4.92 -1.02,-10.71 3.33,-14.31 4.59,-4.64 12.7,-1.86 15.17,3.52 3.54,6.96 7.56,14.23 7.9,22.21 0.63,5.88 -5.73,8.13 -9.13,11.67 7.95,1.33 14.02,-4.15 18.61,-9.83 1.26,5.28 0.25,11.34 -4.02,15 -9.17,7.57 -21.85,8.84 -33.23,6.99 z m -195.21,-13.58 c -12.66,-2.43 -24.8,-7.32 -35.95,-13.71 -4.74,-1.9 -5.82,-9.09 -1.63,-12.11 6.72,-6.04 15.14,-9.78 23.45,-13.1 12.24,-4.8 26.11,-3.53 38.09,1.47 8.18,3.31 18.46,6.39 21.88,15.49 -0.14,5.94 -5.03,10.11 -9.38,13.4 -10.5,7.26 -23.81,10.93 -36.46,8.56 z m -47.81,-25.56 c -0.03,-13.82 9.76,-25.2 21.09,-31.86 11.51,-6.64 26.68,-4.72 37.3,2.84 0.06,0.66 0.16,1.99 0.22,2.65 -11.5,0.73 -23.68,0.59 -34.03,6.35 -9.83,4.47 -17.35,12.26 -24.58,20.02 z m -86.92,-44.59 c -1.59,-24.44 2.8,-49.39 13.56,-71.44 13.92,-33.04 27.58,-66.64 33.82,-102.14 2.68,-18.36 4.67,-38.5 17.49,-53.01 5.89,-8.22 15.56,-15.35 26.17,-13.48 -2.51,6.84 -7.58,12.25 -10.87,18.67 -7.71,14.34 -10.48,30.64 -12.51,46.62 -3.49,24.85 -4.88,49.92 -7.42,74.85 -4.34,27.04 -10.48,55.51 -29.12,76.62 -11.11,11.76 -16.58,27.89 -17.07,43.9 -0.07,5.02 -0.42,10.06 -1.59,14.94 -8.57,-9.79 -11.57,-22.87 -12.46,-35.53 z m 180.74,-134.35 c -2.72,-0.57 -4.98,-2.63 -6.21,-5.09 -0.64,-3.38 2.98,-5.41 5.55,-6.66 6.14,-2.8 15.04,-4.4 19.31,2.29 2.18,2.95 8.04,8.62 2.86,11.13 -7.19,0.12 -14.37,-0.88 -21.51,-1.67 z m 137.22,395.98 c 8.11,7.05 20.6,6.55 29.41,1.13 10.18,-6.71 17.27,-19.1 15.63,-31.48 -1.77,-8.34 -5.18,-17.42 -12.81,-22.06 2.49,10.03 1.81,22.19 -6.92,29.05 -6.65,5.68 -15.8,4.25 -23.79,3.54 2.82,2.59 5.84,6.03 9.84,6.49 4.43,0.69 9.61,-0.7 12.53,2.99 -5.55,7.72 -15.01,9.74 -23.89,10.34"
       style="fill:#c58c1b;fill-opacity:1;fill-rule:evenodd;stroke:none"
       transform="matrix(0.13333333,0,0,-0.13333333,0,1056)" />
    <path
       id="path2"
       d="m 3036.47,4003.63 c 2.55,0 5.09,-0.01 7.64,-0.02 20.98,-59.35 42.35,-118.56 63.45,-177.86 11.52,-31.77 22.37,-63.82 34.42,-95.4 4.86,-13.37 17.13,-22.15 30.25,-26.38 -0.06,-2.63 0.16,-5.31 -0.19,-7.95 -12.08,-0.09 -24.1,1.71 -36.21,1.58 -13.87,0.35 -27.65,-1.46 -41.5,-1.65 -0.11,2.24 -0.22,4.48 -0.33,6.69 -0.41,0.03 -1.21,0.09 -1.61,0.12 5.11,3.23 10.25,6.58 14.51,10.9 4.01,3.79 2.13,9.82 0.91,14.47 -6.44,18.22 -13.41,36.27 -20.09,54.41 -40.49,-0.01 -80.99,0.08 -121.47,-0.04 -4.59,-12.86 -9.38,-25.64 -13.96,-38.5 -2.47,-7.79 -3.15,-16.12 -2.79,-24.26 1.68,-8.95 11.07,-12.83 18.59,-15.93 -0.02,-2.61 -0.02,-5.23 0,-7.86 -11.46,0.17 -22.84,1.93 -34.32,1.65 -11.57,0.13 -23.03,-1.65 -34.58,-1.69 -0.05,2.67 -0.07,5.34 -0.09,8 7.03,2.33 14.13,5.43 19.22,11.01 5.68,6.12 8.6,14.1 11.78,21.67 35.5,88.99 70.92,178.02 106.37,267.04 z m -63.08,-202.96 c 36.2,-0.1 72.39,-0.09 108.58,0 -17.06,46.87 -33.88,93.85 -51.05,140.69 -19.34,-46.82 -38.36,-93.79 -57.53,-140.69"
       style="fill:#000000;fill-opacity:1;fill-rule:evenodd;stroke:none"
       transform="matrix(0.13333333,0,0,-0.13333333,0,1056)" />
    <path
       id="path3"
       d="m 3824.79,4003.59 c 2.51,0.03 5.05,0.04 7.59,0.03 31.61,-88.54 63.26,-177.08 94.91,-265.63 3.78,-10.29 8.8,-21.02 18.57,-26.89 4.43,-2.83 9.24,-5.02 14.11,-7.01 0.01,-2.71 0.01,-5.45 0.03,-8.18 -14.13,0.42 -28.21,2.06 -42.35,1.68 -11.64,-0.06 -23.21,-1.42 -34.83,-1.71 -0.11,2.67 -0.18,5.34 -0.22,7.99 5.21,3.95 11.7,7.01 14.9,12.98 0.88,4.85 -0.8,9.69 -2.27,14.25 -6.29,17.14 -12.89,34.17 -18.95,51.38 -40.56,0.14 -81.11,0.06 -121.66,0.04 -4.82,-14.12 -10.56,-27.92 -14.99,-42.17 -1.61,-7.48 -2.4,-15.37 -1.19,-22.96 3.06,-7.3 11.02,-10.74 17.95,-13.49 -0.05,-2.65 -0.05,-5.32 -0.07,-7.99 -14.09,0.56 -28.14,2.38 -42.24,1.5 -8.92,-0.42 -17.79,-1.4 -26.7,-1.5 -0.02,2.66 0.01,5.29 0.04,7.93 7.8,2.66 15.74,6.29 20.92,12.98 5.95,7.63 8.84,17.03 12.59,25.81 34.52,87.03 69.39,173.91 103.86,260.96 z m -5.45,-62.16 c -19.34,-46.88 -38.45,-93.86 -57.56,-140.82 36.18,-0.02 72.39,0.06 108.58,-0.04 -16.92,46.97 -33.99,93.91 -51.02,140.86"
       style="fill:#000000;fill-opacity:1;fill-rule:evenodd;stroke:none"
       transform="matrix(0.13333333,0,0,-0.13333333,0,1056)" />
    <path
       id="path4"
       d="m 3439.77,4003.11 c 21.87,-7.56 45.25,-3.37 67.86,-5.18 33.19,-0.78 66.39,-1.6 99.58,-0.69 23.43,0.24 46.83,1.45 70.27,1.27 10.26,-0.37 20.42,1.58 30.2,4.62 -0.17,-17.95 -0.69,-35.89 -1.32,-53.82 -2.65,0.17 -5.23,0.36 -7.83,0.57 -3.54,11.3 -10.28,23.28 -22.59,26.47 -15.19,4.08 -31.21,2.38 -46.77,2.79 -12.28,-0.23 -24.6,0.56 -36.85,-0.5 -0.19,-79.44 -0.82,-158.88 -1,-238.34 -0.17,-8.39 -1.67,-18.09 3.88,-25.2 6.3,-7.03 16.16,-8.76 24.86,-11.13 0,-2.68 0,-5.37 0,-8.06 -18.83,0.4 -37.62,2.32 -56.47,1.59 -12.41,-0.19 -24.77,-1.61 -37.16,-1.52 -0.02,2.65 -0.02,5.28 0,7.92 8.44,2.16 17.49,3.94 24.47,9.51 5.08,4.48 5.61,11.79 5.54,18.1 -0.5,82.54 -1.03,165.09 -1.32,247.65 -23.62,-0.31 -47.26,0.64 -70.84,-0.63 -10.11,-0.43 -21,-3.6 -27.19,-12.15 -4.25,-4.95 -5.56,-11.54 -8.95,-16.93 -2.38,-0.04 -4.74,0.06 -7.1,0.15 -0.18,17.85 -1.02,35.66 -1.27,53.51"
       style="fill:#000000;fill-opacity:1;fill-rule:evenodd;stroke:none"
       transform="matrix(0.13333333,0,0,-0.13333333,0,1056)" />
    <path
       id="path5"
       d="m 2671.04,3998.6 c 12.91,-0.03 25.77,-1.54 38.68,-1.73 21.04,-0.52 42.09,3.47 63.1,0.7 20.32,-2.27 41.32,-9.15 55.59,-24.5 12.92,-13.56 18.06,-32.91 17.43,-51.3 0.21,-19.72 -9.12,-39.18 -24.56,-51.43 -10.72,-8.97 -23.87,-14.32 -37.12,-18.38 23.27,-5.28 46.15,-17.81 58.42,-38.96 11.81,-19.42 11.92,-43.72 6.22,-65.15 -4.66,-17.19 -16.48,-32.4 -32.6,-40.21 -25.63,-12.64 -55.23,-12.68 -83.1,-10.61 -20.79,1.42 -41.62,0.03 -62.38,-1.12 -0.04,2.64 -0.06,5.29 -0.03,7.91 4.55,0.28 9.3,1.1 13,3.96 6.5,4.71 8.83,13.13 9.09,20.79 -0.1,74.69 -0.69,149.38 -0.96,224.06 -0.21,9.27 -0.14,18.74 -2.96,27.67 -1.32,4.06 -4.13,7.95 -8.36,9.27 -3.09,0.79 -6.3,0.95 -9.45,1.33 0,2.57 -0.01,5.14 -0.01,7.7 z m 62.15,-10.83 c -4.33,-3.47 -4.64,-9.54 -4.82,-14.66 -0.08,-38.22 -0.22,-76.43 -0.36,-114.66 10.08,0 20.2,-0.26 30.23,1.09 14.64,1.55 29.86,6.47 39.89,17.77 10.58,12.1 13.3,28.9 13.05,44.48 -0.36,17.9 -5.13,36.71 -17.77,50 -10.95,12.07 -27.27,18.25 -43.34,18.67 -5.67,0.1 -11.92,0.54 -16.88,-2.69 z m -5.55,-259.28 c 0.15,-4.93 -0.1,-10.24 2.57,-14.61 2.13,-3.32 6.09,-4.77 9.84,-5.24 18.06,-1.23 37.47,0.97 52.53,11.8 14.23,9.74 21.92,26.6 24.12,43.31 2.48,19.29 0.86,40.33 -10.36,56.83 -9.06,13.74 -24.65,22.07 -40.67,24.59 -12.46,2.15 -25.13,0.9 -37.68,1.29 -0.07,-39.32 -0.2,-78.65 -0.35,-117.97"
       style="fill:#000000;fill-opacity:1;fill-rule:evenodd;stroke:none"
       transform="matrix(0.13333333,0,0,-0.13333333,0,1056)" />
    <path
       id="path6"
       d="m 3336.34,3996.86 c 17.79,0 35.52,1.48 53.3,1.73 -0.03,-16.42 -0.03,-32.83 0.02,-49.24 -2.68,0.18 -5.33,0.38 -7.97,0.59 -0.74,7.45 -3.04,15.08 -8.28,20.63 -5.48,5.45 -13.27,8.06 -20.89,8.09 -24.66,0.18 -49.3,-0.07 -73.95,0.12 0.03,-40.12 0.04,-80.23 -0.02,-120.36 20.28,0.09 40.56,-0.04 60.83,0.06 8.48,0.41 17.71,1.04 24.64,6.51 5.41,4.3 7.44,11.17 9.75,17.39 2.51,0.24 5.04,0.18 7.6,0.26 -0.31,-7.92 -0.71,-15.84 -1.21,-23.75 -0.56,-12.9 0.64,-25.81 2.19,-38.59 -2.67,0.04 -5.34,0.09 -7.99,0.1 -2.33,7.46 -6.07,15.21 -13.29,19.01 -9.8,5.09 -21.23,4.18 -31.92,4.36 -16.85,0 -33.7,0 -50.55,0 -0.01,-38.39 -0.03,-76.77 0,-115.16 0.03,-8.07 2.44,-17.11 9.44,-21.93 3.15,-2.48 7.25,-2.8 11.04,-3.59 -0.09,-2.53 -0.13,-5.06 -0.15,-7.61 -11.49,0.19 -22.89,1.66 -34.38,1.8 -13.76,0.44 -27.43,-1.57 -41.17,-1.76 -0.05,2.55 -0.06,5.09 -0.08,7.62 4.65,0.73 9.58,1.65 13.11,5.03 5.31,5.31 7.49,13.1 7.32,20.48 -0.02,40.97 0,81.93 0,122.89 0.09,40.98 -0.06,82.19 -6.23,122.8 -1.01,4.1 -0.55,9.84 -5.13,11.83 -5.27,2.27 -11.13,2.28 -16.75,2.71 -0.03,2.68 -0.03,5.36 -0.05,8.02 40.27,-0.12 80.51,-0.01 120.77,-0.04"
       style="fill:#000000;fill-opacity:1;fill-rule:evenodd;stroke:none"
       transform="matrix(0.13333333,0,0,-0.13333333,0,1056)" />
  </g>
</svg>
