<?xml version="1.0" encoding="utf-8"?>
<svg xmlns="http://www.w3.org/2000/svg" xmlns:xlink="http://www.w3.org/1999/xlink" viewBox="0 0 200 144" style="enable-background:new 0 0 200 144;" xml:space="preserve">
<style type="text/css">
	.st0{fill:#266EED;}
</style>
<g id="layer1" transform="translate(-180.22356,7.1059736)">
	<g id="layer1-4" transform="matrix(17.503847,0,0,17.503847,8694.3538,-42371.886)">
		<g id="g3100" transform="matrix(1.0376064,0,0,1.0376064,20.190985,-94.19063)">
			<g id="g3093" transform="matrix(0.06977946,0,0,0.06977946,-363.0376,2348.0327)">
				<g id="g3266" transform="matrix(1.0765695,0,0,1.0765695,137.36046,-91.33913)">
					<g id="g3030" transform="matrix(0.25114959,0,0,0.25114959,-1805.9363,991.55144)">
						<path id="path3018" class="st0" d="M47.8,422.5
							c0-21,14.9-38.1,38.7-38.1c25.1,0,38.6,18,38.6,39.2c0,23.3-17,37.4-38.4,37.4C63.4,460.8,47.8,445,47.8,422.5z"/>
						<path id="path3020" class="st0" d="M47.9,492.7
							c0-3.6,2-6.2,6-6.2h65.3c3.4,0,5.7,2.7,5.7,6.1v100.1c0,17.1,9.7,36.9,39.7,36.9c29.2,0,44.3-18.2,44.3-55.3v-7.8l31,59l4,20
							c0,0-30.4,29.4-85.5,29.4c-27.4,0-110.5-4.5-110.5-95.4V492.7z"/>
						<path id="path3024" class="st0" d="M244,645.6l31-80
							l10-10v14c0,33.7,16.3,59.6,58.6,59.6c38.5,0,65.7-21.8,65.7-55.7c0-17.2-8.3-30.9-8.3-30.9l43.7,21.8l3.8,53.2
							c0,0-29.1,57.1-111.2,57.1C273.2,674.7,244,645.6,244,645.6z"/>
						<path id="path3022" class="st0" d="M244,645.6
							c0,0-35-26.7-35-76.8V425.6c0-11.5,7.4-21.5,38.4-21.5c33.9,0,37.6,13.2,37.6,23.1v59.4h60c4.3,0,6,2.5,6,6.5v35.5
							c0,3.4-1.4,6-5.3,6H306c-10.3,0-21-4-21-4v24C285,584.5,277.2,615.1,244,645.6z"/>
						<path id="path3028" class="st0" d="M448.5,617.6
							l9.5-104.7l4.3-18.2c0,0,19,27.7,67.5,116.9c30.8-55.9,50.4-122.8,50.4-122.8c1.4-4.6,5-5.7,10.3-4.3l33.2,10.3
							c4,1.4,6.2,3,3.9,10.5C600,585.7,556.7,652,556.7,652c-8.3,12.3-16.8,22.8-44.9,22.8c-22.7,0-30.6-7.7-38.5-19.5L448.5,617.6z
							"/>
						<path id="path3026" class="st0" d="M448.5,617.6L396.7,536
							c-3.1-5.8-5.5-9.3-5.5-16.2c0-10.1,5.3-17.5,23.2-28.7c3.9-2.5,17.8-8.1,29.1-8.1c15.2,0,26.6,15.7,26.6,48.7
							C470,585.3,448.5,617.6,448.5,617.6L448.5,617.6z"/>
					</g>
					<g id="g3257" transform="matrix(0.46983536,0,0,0.46983536,-942.46724,605.76377)">
						<path id="path2998" class="st0" d="M-1720.7,1209.2
							h8.4v25.2c0,2.3,0.5,4.9,2,6.3c1.1,1,2.6,2,6.1,2c3.1,0,4.8-0.8,6.1-2.1c1.1-1.1,1.9-3.1,1.9-5.4v-26h8.5v25.5
							c0,4.4-1,7.8-3.8,10.8c-1.9,2-5.1,4.2-12.7,4.2c-6.1,0-9.9-1.3-12.7-4.2c-2.4-2.4-3.8-5.8-3.8-10.6V1209.2z"/>
						<path id="path3000" class="st0" d="M-1669.2,1209.2v37.7c0,1.3,0.2,2.1,1.7,2.1h15.3
							c5.2,0,9.9-1.8,12.5-4.5c3.9-3.9,5.4-9.2,5.4-15.4c0-6.6-1.7-11.8-5.2-15.2c-3.4-3.4-8.1-4.8-13.8-4.8L-1669.2,1209.2
							L-1669.2,1209.2z M-1660.7,1216.1h6.8c3.7,0.1,6.1,0.9,7.8,2.4c2.2,2.1,3.3,5.8,3.3,10.6c0,4.1-0.7,8.2-3.1,10.6
							c-2,1.9-4.8,2.5-8.7,2.5h-6L-1660.7,1216.1L-1660.7,1216.1z"/>
						<path id="path3004" class="st0" d="M-1617.1,1209.2h8.4v38.4
							c0,1.3-0.9,1.7-4.3,1.7c-3,0-4.2-0.3-4.2-1.8V1209.2z"/>
						<path id="path3030" class="st0" d="
							M-1798.2,1249.7c-4.7,0-7.8-0.6-11.8-1.6c-1.1-0.3-1.4-0.6-1.4-1.7c0-1.1,0.4-3.5,0.8-4.2c0.4-0.9,0.5-1,1.2-1
							c1.1,0,4.6,1.6,10.7,1.6c4.2,0,5.6-0.9,6.5-1.7c0.6-0.7,1-1.7,1-2.9c0-1-0.2-2.2-1-2.9c-2.8-2.7-11.9-3.2-15.5-6.9
							c-2.5-2.4-3-5.7-3-7.8c0-3.6,1.3-6.1,3.1-8c2.9-2.9,7.6-3.8,12.1-3.8c5.9,0,10.6,1.5,10.6,1.5l-0.8,6.8c0,0-5.1-1.4-9.4-1.4
							c-5.7,0-7.1,2.2-7.1,4.4c0,1,0.4,1.9,1,2.5c2.5,2.6,11.5,2.7,15.4,6.7c2.4,2.4,3.1,5.3,3.1,8.3c0,3.4-1,6.4-3.2,8.7
							C-1788.5,1248.8-1792.9,1249.7-1798.2,1249.7L-1798.2,1249.7z"/>
						<path id="path3034" class="st0" d="M-1573.2,1208.6c-5.7,0-10.4,1.8-13.2,4.8
							c-2.8,3-5.2,7.1-5.2,15.8c0,6.3,1.1,11.5,5.1,15.8c2.8,3,7,4.7,13.3,4.7c5.3,0,9.7-1.2,13.2-4.8c3.6-3.9,5-9.1,5-15.6
							c0-6.4-1.3-11.9-5.1-15.7C-1562.3,1211-1566.3,1208.6-1573.2,1208.6L-1573.2,1208.6z M-1573.1,1215.7c2.7,0,4.7,0.7,6.5,2.5
							c2.3,2.2,3.1,6.5,3.1,10.9c0,4.1-0.6,8.4-3.1,11c-1.2,1.2-3.3,2.5-6.6,2.5c-3.1,0-5.1-1-6.5-2.3c-2.9-2.8-3.2-7.7-3.2-11.2
							c0-4.7,0.7-8.5,3.2-11C-1578.1,1216.6-1575.7,1215.7-1573.1,1215.7L-1573.1,1215.7z"/>
						<path id="path3038" class="st0" d="M-1753.8,1249.4
							c-3.6,0-4.3-0.6-4.3-2.1v-31.2h-11.8v-6.9h32.1v6.9h-11.8v31.2C-1749.6,1248.9-1750.4,1249.4-1753.8,1249.4z"/>
						<path id="path3108" class="st0" d="
							M-1527.2,1249.7c-4.7,0-7.8-0.6-11.8-1.6c-1.1-0.3-1.4-0.6-1.4-1.7c0-1.1,0.4-3.5,0.8-4.2c0.4-0.9,0.5-1,1.2-1
							c1.1,0,4.6,1.6,10.7,1.6c4.2,0,5.6-0.9,6.5-1.7c0.6-0.7,1-1.7,1-2.9c0-1-0.2-2.2-1-2.9c-2.8-2.7-11.9-3.2-15.5-6.9
							c-2.5-2.4-3-5.7-3-7.8c0-3.6,1.3-6.1,3.1-8c2.9-2.9,7.6-3.8,12.1-3.8c5.9,0,10.6,1.5,10.6,1.5l-0.8,6.8c0,0-5.1-1.4-9.4-1.4
							c-5.7,0-7.1,2.2-7.1,4.4c0,1,0.4,1.9,1,2.5c2.5,2.6,11.5,2.7,15.4,6.7c2.4,2.4,3.1,5.3,3.1,8.3c0,3.4-1,6.4-3.2,8.7
							C-1517.4,1248.8-1521.9,1249.7-1527.2,1249.7L-1527.2,1249.7z"/>
					</g>
				</g>
			</g>
		</g>
	</g>
</g>
</svg>
