<svg class="site-header__logo" height="48.336" viewBox="0 0 140 48.336" width="140" xmlns="http://www.w3.org/2000/svg"><g transform="translate(-58.469 -73.922)"><g transform="translate(58.469 103.431)"><path d="M61.878,200.371a5.641,5.641,0,0,0,1.73,1.4,7.4,7.4,0,0,0,3.459.863c1.781,0,3.307-.838,3.307-2.081,0-1.421-1.806-1.649-3.129-1.827-.992-.127-1.984-.254-2.951-.457-1.094-.229-4.833-1.015-4.833-4.872,0-4.618,4.121-5.988,7.224-5.988a10.964,10.964,0,0,1,7.937,3.4l-3.307,2.36a8.211,8.211,0,0,0-1.781-1.447,6.465,6.465,0,0,0-2.925-.787c-1.78,0-2.671,1.015-2.671,1.877,0,1.37,1.526,1.573,2.289,1.675a35.064,35.064,0,0,1,5.494,1.066,4.44,4.44,0,0,1,3.1,4.389,5.952,5.952,0,0,1-1.424,3.806c-1.628,1.878-4.223,2.411-6.741,2.411-5.062,0-7.072-2.335-8.191-3.629Z" transform="translate(-58.469 -187.405)"></path><path d="M136.693,216.131a7.559,7.559,0,0,1-2.086,2.36,6.619,6.619,0,0,1-3.816,1.193c-2.544,0-6.588-1.522-6.588-6.927,0-3.857,2.239-7.1,6.665-7.1a6.353,6.353,0,0,1,5.672,3.172l-2.9,1.649a3.231,3.231,0,0,0-1.119-1.4,2.61,2.61,0,0,0-1.475-.457c-2.111,0-2.823,2.411-2.823,4.009,0,1.751.865,3.958,2.951,3.958a2.614,2.614,0,0,0,1.984-.913,2.789,2.789,0,0,0,.585-1.066Z" transform="translate(-107.11 -200.907)"></path><path d="M179.18,207.956a6.164,6.164,0,0,1,3.841-1.522v3.451l-1.3.2c-1.882.33-2.442.609-2.442,2.284v7.459h-3.917v-13.27h3.815Z" transform="translate(-144.969 -201.486)"></path><path d="M218.626,215.661a10.341,10.341,0,0,1-1.6,1.979,7.3,7.3,0,0,1-5.011,1.878c-3.943,0-6.716-2.512-6.716-6.851,0-3.2,1.577-7.308,6.817-7.308a6.457,6.457,0,0,1,4.782,1.9c1.73,1.852,1.831,4.441,1.882,5.937h-9.488a2.986,2.986,0,0,0,3.027,3.3,3.512,3.512,0,0,0,3.357-2.334Zm-3.892-4.9a3.146,3.146,0,0,0-.737-1.878,2.763,2.763,0,0,0-1.908-.736,2.7,2.7,0,0,0-1.984.863,3.455,3.455,0,0,0-.788,1.751Z" transform="translate(-167.118 -200.69)"></path><path d="M273.7,215.661a10.354,10.354,0,0,1-1.6,1.979,7.3,7.3,0,0,1-5.011,1.878c-3.943,0-6.715-2.512-6.715-6.851,0-3.2,1.577-7.308,6.817-7.308a6.457,6.457,0,0,1,4.782,1.9c1.73,1.852,1.831,4.441,1.882,5.937h-9.488a2.986,2.986,0,0,0,3.027,3.3,3.512,3.512,0,0,0,3.358-2.334Zm-3.892-4.9a3.146,3.146,0,0,0-.738-1.878,2.761,2.761,0,0,0-1.908-.736,2.7,2.7,0,0,0-1.984.863,3.458,3.458,0,0,0-.789,1.751Z" transform="translate(-207.87 -200.69)"></path><path d="M319.19,207.272a3.813,3.813,0,0,1,1.323-1.04,6.469,6.469,0,0,1,2.416-.482,5.056,5.056,0,0,1,2.366.533c1.4.736,1.755,1.928,1.755,3.984v9.058h-3.892v-7.459a5.293,5.293,0,0,0-.178-1.979,1.781,1.781,0,0,0-1.755-1.015c-2.06,0-2.06,1.65-2.06,3.3v7.155h-3.917v-13.22h3.943Z" transform="translate(-248.477 -200.98)"></path><path d="M366.88,200.371a5.647,5.647,0,0,0,1.729,1.4,7.406,7.406,0,0,0,3.46.863c1.781,0,3.307-.838,3.307-2.081,0-1.421-1.806-1.649-3.129-1.827-.992-.127-1.984-.254-2.951-.457-1.094-.229-4.833-1.015-4.833-4.872,0-4.618,4.121-5.988,7.224-5.988a10.964,10.964,0,0,1,7.937,3.4l-3.307,2.36a8.2,8.2,0,0,0-1.781-1.447,6.464,6.464,0,0,0-2.925-.787c-1.78,0-2.671,1.015-2.671,1.877,0,1.37,1.526,1.573,2.29,1.675a35.07,35.07,0,0,1,5.494,1.066,4.44,4.44,0,0,1,3.1,4.389,5.952,5.952,0,0,1-1.424,3.806c-1.628,1.878-4.223,2.411-6.741,2.411-5.062,0-7.072-2.335-8.191-3.629Z" transform="translate(-284.162 -187.405)"></path><path d="M429.6,189.064h3.841v9.211l4.3-4.542h4.706l-4.579,4.719,5.164,8.526H438.5l-3.408-5.709-1.679,1.573v4.136H429.6Z" transform="translate(-333.094 -188.633)"></path><path d="M484.963,188.967h3.866v3.019h-3.866Zm0,4.669h3.866v13.27h-3.866Z" transform="translate(-374.062 -188.561)"></path><path d="M511.379,189.064v17.914h-3.917V189.064Z" transform="translate(-390.711 -188.633)"></path><path d="M534.072,189.064v17.914h-3.917V189.064Z" transform="translate(-407.503 -188.633)"></path><path d="M550.425,214.57a5.678,5.678,0,0,0,3.866,1.827c.942,0,2.366-.3,2.366-1.294a.809.809,0,0,0-.509-.761,8.476,8.476,0,0,0-2.264-.508,15.034,15.034,0,0,1-1.781-.406,4.994,4.994,0,0,1-2.213-1.142,3.568,3.568,0,0,1-.992-2.487c0-2.182,1.882-4.441,5.6-4.441a9.743,9.743,0,0,1,5.927,1.979l-2.417,2.233a5.571,5.571,0,0,0-3.333-1.32c-1.526,0-1.882.609-1.882.989,0,.761.839.914,2.111,1.142,2.671.482,5.774,1.193,5.774,4.339,0,3.121-3.154,4.644-6.283,4.644a8.757,8.757,0,0,1-6.435-2.563Z" transform="translate(-420.677 -200.69)"></path></g><rect height="3.01" transform="translate(59.407 79.939)" width="95.548"></rect><rect height="3.01" transform="translate(59.407 85.956)" width="80.836"></rect><rect height="3.01" transform="translate(59.407 91.97)" width="58.47"></rect><rect height="3.01" transform="translate(59.407 97.988)" width="44.168"></rect><path d="M197.766,73.922H65.019a2.974,2.974,0,0,0-2.941,3.007l138.7,0A3.009,3.009,0,0,0,197.766,73.922Z" transform="translate(-2.671)"></path></g></svg>